<?xml version="1.0" standalone="no"?>
<!DOCTYPE svg PUBLIC "-//W3C//DTD SVG 20010904//EN"
 "http://www.w3.org/TR/2001/REC-SVG-20010904/DTD/svg10.dtd">
<svg version="1.0" xmlns="http://www.w3.org/2000/svg"
 width="736.000000pt" height="736.000000pt" viewBox="0 0 736.000000 736.000000"
 preserveAspectRatio="xMidYMid meet">
<metadata>
Created by potrace 1.11, written by Peter Selinger 2001-2013
</metadata>
<g transform="translate(0.000000,736.000000) scale(0.100000,-0.100000)"
fill="#000000" stroke="none">
<path d="M2582 7145 c-18 -19 -30 -35 -27 -35 3 0 -3 -8 -12 -18 -53 -56 -151
-241 -205 -387 -24 -67 -24 -83 1 -61 18 16 21 16 48 2 45 -26 65 -40 88 -61
12 -11 34 -29 49 -40 16 -11 34 -25 41 -32 31 -29 315 -197 315 -186 0 3 9 -2
20 -12 11 -10 20 -15 20 -10 0 4 6 3 13 -3 17 -14 49 -18 66 -8 10 6 12 5 7
-2 -8 -14 40 -36 56 -26 7 5 8 2 3 -6 -5 -8 -3 -11 6 -8 8 3 22 1 32 -4 32
-17 56 -18 50 -3 -2 8 -9 13 -13 12 -5 -1 -26 15 -48 35 -41 38 -127 200 -152
286 -7 23 -17 42 -22 42 -4 0 -8 6 -8 14 0 15 -94 205 -133 267 -58 95 -105
179 -127 226 -14 29 -27 53 -30 53 -3 0 -20 -16 -38 -35z"/>
<path d="M3325 6251 c-11 -5 -23 -7 -27 -4 -5 2 -8 0 -8 -6 0 -5 -11 -8 -25
-6 -14 1 -25 -1 -25 -4 0 -4 -17 -5 -37 -4 l-38 4 30 -17 c17 -9 33 -21 36
-26 3 -5 8 -8 10 -7 6 5 69 -35 69 -43 0 -4 7 -8 15 -8 8 0 15 -4 15 -10 0 -5
5 -10 10 -10 19 0 180 -188 180 -211 0 -3 -33 -7 -72 -8 -200 -6 -267 -9 -277
-16 -6 -3 -11 -1 -11 5 0 7 -8 9 -19 5 -11 -3 -64 -8 -118 -10 -93 -3 -130 5
-117 26 3 5 -2 6 -10 3 -10 -4 -16 -1 -16 9 0 8 -7 18 -16 21 -8 3 -13 10 -9
15 6 11 -12 24 -39 28 -14 2 -17 -1 -12 -14 6 -17 5 -17 -8 0 -8 10 -17 14
-20 9 -3 -6 -15 -8 -25 -5 -10 3 -28 0 -38 -6 -14 -7 -23 -7 -31 1 -7 7 -12 8
-12 2 0 -9 -34 -14 -102 -16 -17 0 -25 -5 -21 -11 4 -6 1 -7 -6 -3 -7 5 -28 5
-48 1 -33 -6 -34 -7 -18 -25 9 -10 24 -16 33 -13 14 4 15 3 2 -6 -8 -5 -11
-13 -7 -17 3 -4 15 -1 24 7 16 13 17 12 4 -4 -8 -10 -20 -16 -26 -13 -7 2 -18
-1 -25 -7 -10 -9 -11 -9 -6 1 8 13 -6 17 -18 5 -7 -7 -50 -10 -273 -17 -77 -2
-147 -7 -154 -11 -8 -6 -10 -4 -4 5 5 9 4 11 -4 6 -7 -4 -74 -10 -149 -12
-270 -9 -377 -13 -379 -14 -7 -4 -74 -3 -78 1 -2 3 14 16 35 29 22 14 40 28
40 31 0 4 -39 7 -87 8 -49 1 -107 3 -131 4 -23 1 -42 -2 -42 -8 0 -7 -3 -7 -8
0 -9 12 -301 13 -321 1 -10 -6 -12 -5 -7 2 8 13 -7 15 -41 6 -13 -4 -20 -11
-16 -18 4 -8 2 -8 -7 1 -12 11 -63 1 -84 -18 -5 -4 -14 -5 -21 -3 -7 3 -16 1
-20 -5 -3 -6 -1 -11 4 -11 6 0 11 -6 11 -14 0 -8 6 -16 13 -19 6 -2 8 -8 4
-13 -4 -5 -12 -2 -16 5 -5 8 -14 10 -21 6 -9 -5 -11 -4 -6 3 8 14 -38 64 -50
54 -4 -4 -4 -1 0 6 5 9 -3 24 -21 43 l-30 29 5 -25 c2 -15 9 -22 16 -18 6 4 5
-1 -2 -10 -8 -9 -11 -25 -7 -36 3 -11 8 -35 9 -53 2 -18 8 -49 12 -68 14 -57
10 -151 -10 -248 -3 -15 -8 -43 -11 -62 -13 -79 -16 -98 -26 -155 -26 -145
-27 -152 -35 -204 -4 -25 -8 -55 -11 -66 -7 -35 -13 -64 -18 -92 -2 -16 -7
-39 -9 -53 -3 -14 -8 -41 -10 -60 -3 -19 -8 -46 -11 -60 -2 -14 -7 -41 -9 -60
-3 -19 -7 -45 -10 -56 -2 -12 -7 -39 -10 -60 -12 -76 -28 -151 -61 -274 -37
-138 -44 -170 -50 -248 -3 -29 -8 -59 -12 -65 -4 -7 -8 -57 -9 -112 -1 -55 -5
-111 -8 -125 -4 -14 -9 -41 -12 -60 -3 -19 -13 -66 -21 -105 -7 -38 -15 -76
-15 -82 -1 -7 -6 -13 -11 -13 -5 0 -3 -8 4 -17 8 -9 9 -14 3 -10 -15 9 -24
-15 -17 -42 3 -12 1 -21 -4 -21 -6 0 -9 -16 -8 -35 1 -20 -4 -40 -12 -46 -7
-6 -11 -15 -8 -19 3 -5 1 -11 -5 -15 -5 -3 -10 -14 -10 -24 0 -10 -7 -24 -15
-31 -8 -7 -12 -16 -10 -21 6 -9 -11 -44 -32 -67 -7 -7 -13 -20 -13 -28 0 -8
-3 -14 -8 -14 -4 0 -16 -15 -26 -34 -10 -19 -32 -49 -48 -65 l-30 -31 31 0
c36 0 131 -37 131 -51 0 -5 7 -9 15 -9 9 0 18 -7 21 -15 4 -8 10 -12 15 -9 5
3 9 1 9 -3 0 -5 20 -22 45 -37 25 -16 45 -32 45 -35 0 -3 16 -24 35 -46 19
-22 38 -44 43 -50 30 -40 120 -154 134 -170 18 -21 389 -489 448 -565 19 -25
40 -51 47 -58 6 -6 15 -21 18 -32 3 -11 11 -20 16 -20 6 0 7 -5 4 -10 -4 -6
-12 -8 -18 -4 -7 3 -4 -1 6 -9 14 -11 15 -16 5 -20 -9 -4 -7 -11 9 -25 12 -11
19 -22 16 -26 -3 -3 1 -8 10 -12 9 -3 13 -12 10 -20 -3 -8 1 -14 11 -14 9 0
16 -8 16 -20 0 -11 5 -20 11 -20 5 0 7 5 3 12 -4 7 -3 8 4 4 6 -4 9 -12 6 -19
-2 -7 6 -23 18 -37 13 -14 36 -44 52 -67 15 -23 37 -45 48 -49 16 -5 17 -8 6
-22 -8 -10 -9 -13 -1 -9 7 4 14 -1 19 -15 l6 -21 12 22 c12 22 29 19 20 -4 -7
-17 12 -29 22 -14 5 8 3 9 -6 4 -10 -6 -12 -4 -7 8 6 15 -15 42 -25 32 -9 -9
-30 24 -23 36 9 14 41 -21 182 -196 57 -71 115 -143 128 -160 14 -16 41 -50
60 -75 20 -25 42 -52 48 -60 7 -8 39 -49 72 -90 33 -41 63 -79 68 -85 121
-148 227 -289 226 -303 0 -15 -2 -14 -8 2 -5 14 -10 16 -15 8 -4 -7 -4 -17 0
-24 5 -7 3 -8 -5 -4 -7 5 -10 14 -7 22 7 19 -10 26 -23 10 -9 -11 -9 -16 1
-23 8 -4 32 -30 53 -58 22 -27 50 -61 62 -75 13 -13 40 -48 60 -77 36 -49 60
-65 119 -78 21 -4 191 -57 260 -80 37 -12 54 -13 87 -4 23 6 42 10 42 10 0 -1
26 7 58 18 31 11 57 17 57 14 0 -3 6 -1 13 4 6 6 26 13 42 17 35 8 113 30 202
57 34 10 70 20 80 22 10 2 41 10 68 19 52 16 197 58 218 62 7 2 19 5 27 8 40
14 152 46 185 54 15 3 462 131 535 153 92 28 319 89 355 96 37 7 44 9 75 22
38 16 116 42 142 47 13 3 64 17 113 32 114 34 171 42 159 23 -6 -12 -5 -12 9
0 15 12 17 12 12 -1 -5 -12 0 -14 19 -11 16 3 23 10 19 17 -4 6 1 5 10 -3 14
-11 21 -11 43 4 15 9 24 12 20 6 -4 -5 19 -1 49 9 31 11 60 19 63 18 4 -1 14
1 22 5 18 6 40 12 165 41 39 9 86 19 105 22 19 4 43 10 53 15 9 5 17 8 17 5 0
-2 28 2 63 11 34 8 69 16 77 18 70 16 254 85 262 99 7 12 56 194 81 301 2 6 6
16 10 23 5 6 6 12 3 12 -3 0 1 18 9 41 8 23 12 45 9 50 -3 5 0 9 5 9 6 0 11 8
11 18 0 10 4 22 9 27 6 6 12 21 14 35 3 14 15 49 26 78 12 30 19 58 16 63 -4
5 -2 9 3 9 13 0 34 59 25 73 -3 5 -1 7 4 4 12 -8 26 20 17 34 -3 5 -1 9 5 9 9
0 19 24 26 60 6 28 38 80 62 100 26 22 40 44 48 73 2 4 4 9 5 12 1 3 3 8 5 13
1 4 6 18 12 32 6 14 12 30 13 35 1 6 7 19 13 30 6 11 12 25 13 30 2 12 40 107
59 150 7 17 25 55 38 85 85 188 229 470 255 499 17 19 29 38 26 42 -3 5 -1 9
5 9 14 0 71 82 64 93 -3 6 -1 7 4 4 14 -9 37 19 28 33 -4 6 -1 9 5 8 7 -2 17
6 23 17 7 11 18 24 25 28 7 5 10 12 7 18 -4 5 -2 9 3 9 6 0 24 23 42 50 18 28
37 50 43 50 6 0 8 3 4 6 -5 5 31 62 53 84 8 8 29 43 37 60 3 8 16 29 28 45 27
38 60 107 57 119 -2 5 1 12 6 15 5 3 12 18 16 33 5 21 3 26 -8 22 -7 -3 -20 2
-29 10 -9 9 -21 16 -28 16 -7 0 -10 2 -7 5 4 5 -94 113 -100 109 -1 -1 -22 17
-45 40 -42 42 -151 126 -162 126 -3 0 -3 -5 1 -12 5 -7 3 -8 -5 -4 -7 5 -18 0
-27 -10 -13 -18 -14 -18 -8 1 6 20 5 20 -10 1 -9 -11 -16 -15 -16 -8 0 6 10
18 22 26 17 12 20 18 10 28 -9 9 -12 9 -13 -3 0 -9 -3 -8 -8 4 -4 10 -10 18
-15 17 -4 -1 -16 8 -26 20 -10 11 -28 23 -41 25 -12 3 -26 10 -30 16 -4 6 -12
8 -19 4 -9 -5 -11 -4 -6 3 10 16 -16 15 -34 0 -12 -11 -12 -10 -1 5 8 9 12 18
10 20 -53 30 -76 36 -63 15 4 -7 3 -8 -5 -4 -6 4 -9 12 -6 17 4 5 -2 12 -12
16 -10 3 -25 12 -35 20 -9 8 -23 15 -31 17 -8 1 -22 8 -31 15 -9 7 -23 11 -31
7 -9 -3 -14 -2 -11 2 2 4 -9 15 -25 25 -18 10 -28 12 -24 4 4 -6 0 -4 -9 7 -8
10 -19 15 -25 11 -6 -3 -11 -2 -11 2 0 5 -16 17 -35 27 -19 11 -35 24 -35 29
0 6 -3 8 -6 4 -4 -3 -12 -1 -18 6 -7 7 -27 23 -45 37 -18 14 -39 31 -46 38 -8
6 -16 12 -20 12 -3 0 -17 11 -31 25 -14 14 -29 25 -33 25 -4 0 -20 10 -34 23
-41 35 -73 61 -97 77 -13 8 -32 23 -42 33 -10 9 -22 17 -28 17 -5 0 -10 3 -10
8 0 4 -17 18 -38 32 -20 14 -44 33 -53 42 -9 10 -19 18 -23 18 -18 0 -45 38
-41 58 2 15 -1 22 -11 22 -8 0 -31 16 -52 35 -20 20 -47 45 -59 56 -13 12 -27
18 -34 13 -8 -4 -9 -3 -5 4 4 7 4 12 -1 12 -13 0 -118 102 -116 111 2 5 -7 9
-20 9 -51 -1 -87 8 -113 26 -15 10 -34 24 -43 29 -9 6 -20 16 -24 23 -4 6 -13
12 -19 12 -6 0 -21 11 -34 25 -13 14 -26 25 -30 25 -3 0 -23 14 -43 30 -20 17
-40 34 -46 38 -62 44 -221 168 -223 174 -2 4 -10 8 -18 8 -8 0 -17 7 -20 15
-4 8 -11 15 -16 15 -5 0 -23 14 -40 30 -16 17 -34 30 -39 30 -6 0 -16 6 -23
13 -8 6 -28 23 -45 37 -17 14 -43 35 -58 47 -16 13 -31 23 -35 23 -5 0 -8 6
-8 14 0 8 -8 17 -17 19 -14 4 -12 5 5 6 12 0 22 -4 22 -10 0 -5 5 -7 12 -3 7
5 5 11 -7 21 -11 7 -14 13 -8 13 6 0 16 -7 23 -15 7 -8 16 -12 21 -9 14 8 10
24 -5 24 -8 0 -18 4 -21 10 -3 6 1 7 10 4 16 -6 -2 19 -52 72 -12 13 -20 24
-17 24 3 0 -7 17 -24 38 -16 20 -37 53 -48 72 -10 19 -21 37 -24 40 -3 3 -10
14 -16 25 -6 11 -35 32 -64 46 -43 21 -58 24 -72 16 -25 -16 -32 -39 -14 -49
19 -11 14 -41 -8 -44 -10 -1 -26 -10 -36 -19 -9 -8 -27 -17 -38 -20 -11 -2
-31 -9 -44 -16 -13 -7 -29 -14 -37 -15 -8 -2 -17 -8 -21 -15 -4 -6 -13 -8 -19
-4 -7 4 -18 2 -25 -4 -8 -7 -18 -11 -22 -10 -5 1 -11 1 -14 0 -14 -6 -90 -11
-227 -15 -122 -5 -153 -3 -153 7 0 28 -91 186 -112 195 -4 2 -8 7 -8 12 0 14
-66 77 -107 103 -45 29 -90 39 -118 28z m-795 -329 c0 -5 -7 -9 -15 -9 -8 0
-12 4 -9 9 3 4 9 8 15 8 5 0 9 -4 9 -8z m-1129 -95 c-10 -9 -11 -8 -5 6 3 10
9 15 12 12 3 -3 0 -11 -7 -18z m-291 -7 c0 -5 -2 -10 -4 -10 -3 0 -8 5 -11 10
-3 6 -1 10 4 10 6 0 11 -4 11 -10z m5538 -1645 c-3 -3 -9 2 -12 12 -6 14 -5
15 5 6 7 -7 10 -15 7 -18z m57 -4 c3 -5 2 -12 -3 -15 -5 -3 -9 1 -9 9 0 17 3
19 12 6z m85 -87 c0 -8 -19 -13 -24 -6 -3 5 1 9 9 9 8 0 15 -2 15 -3z m95 -23
c3 -5 2 -12 -3 -15 -5 -3 -9 1 -9 9 0 17 3 19 12 6z m85 -55 c0 -3 -4 -8 -10
-11 -5 -3 -10 -1 -10 4 0 6 5 11 10 11 6 0 10 -2 10 -4z m79 -131 c16 -8 32
-11 36 -7 5 4 5 1 1 -5 -5 -9 0 -13 13 -13 12 0 21 -5 21 -11 0 -5 5 -7 10 -4
6 3 12 0 15 -7 3 -8 15 -15 27 -15 12 -1 24 -6 27 -11 3 -5 15 -11 25 -13 11
-2 21 -8 23 -14 2 -6 -18 -9 -52 -7 -30 2 -53 8 -49 13 3 5 0 9 -6 9 -6 0 -40
23 -76 50 -64 49 -70 64 -15 35z m255 -161 c3 -8 2 -12 -4 -9 -6 3 -10 10 -10
16 0 14 7 11 14 -7z m-118 -39 c-1 -8 -5 -17 -8 -21 -5 -4 -4 16 1 34 3 9 9
-1 7 -13z m1 -60 c0 -8 -4 -12 -9 -9 -5 3 -6 10 -3 15 9 13 12 11 12 -6z m39
0 c-1 -8 -5 -17 -8 -21 -5 -4 -4 16 1 34 3 9 9 -1 7 -13z m-6011 -1975 c3 -6
-1 -7 -9 -4 -18 7 -21 14 -7 14 6 0 13 -4 16 -10z m31 -15 c1 -8 -1 -17 -5
-19 -4 -3 -7 6 -7 19 0 25 8 25 12 0z m37 -38 c-5 -8 -8 -7 -11 1 -2 7 -9 9
-14 6 -7 -4 -8 -2 -4 4 4 6 13 9 21 6 8 -4 12 -11 8 -17z m23 -37 c3 0 0 8 -7
18 -13 16 -12 16 4 3 17 -13 17 -16 3 -26 -9 -7 -13 -15 -9 -19 4 -4 -1 -4
-11 0 -14 5 -15 9 -4 15 7 5 8 9 2 9 -5 0 -19 7 -30 15 -17 14 -16 14 13 0 18
-8 35 -15 39 -15z m22 -75 c-3 -3 -9 2 -12 12 -6 14 -5 15 5 6 7 -7 10 -15 7
-18z m4038 -540 c-1 -8 -5 -17 -8 -21 -5 -4 -4 16 1 34 3 9 9 -1 7 -13z m-130
-57 c3 -4 -1 -5 -10 -4 -8 1 -18 5 -22 8 -3 4 1 5 10 4 8 -1 18 -5 22 -8z"/>
<path d="M1320 1521 c0 -6 4 -13 10 -16 6 -3 7 1 4 9 -7 18 -14 21 -14 7z"/>
</g>
</svg>
